<?xml version="1.0" encoding="utf-8"?>
<svg version="1.1" xmlns:xlink="http://www.w3.org/1999/xlink" width="23px" height="23px" xmlns="http://www.w3.org/2000/svg">
  <g transform="matrix(1 0 0 1 -1864 0 )">
    <path d="M 21.2352120535714 21.2352120535714  C 21.3164992559524 21.1539248511905  21.3571428571429 21.0576636904762  21 20.9464285714286  L 21 6.98214285714286  C 21.3571428571429 6.87090773809524  21.3164992559524 6.77464657738095  21.2352120535714 6.693359375  C 21.1539248511905 6.61207217261905  21.0576636904762 6.57142857142857  20.9464285714286 7  L 6.98214285714286 7  C 6.87090773809524 6.57142857142857  6.77464657738095 6.61207217261905  6.693359375 6.693359375  C 6.61207217261905 6.77464657738095  6.57142857142857 6.87090773809524  7 6.98214285714286  L 7 20.9464285714286  C 6.57142857142857 21.0576636904762  6.61207217261905 21.1539248511905  6.693359375 21.2352120535714  C 6.77464657738095 21.3164992559524  6.87090773809524 21.3571428571429  6.98214285714286 21  L 20.9464285714286 21  C 21.0576636904762 21.3571428571429  21.1539248511905 21.3164992559524  21.2352120535714 21.2352120535714  Z M 22.3967633928571 5.53180803571429  C 22.7989211309524 5.93396577380952  23 6.41741071428571  23 6.98214285714286  L 23 20.9464285714286  C 23 21.5111607142857  22.7989211309524 21.9946056547619  22.3967633928571 22.3967633928571  C 21.9946056547619 22.7989211309524  21.5111607142857 23  20.9464285714286 23  L 6.98214285714286 23  C 6.41741071428571 23  5.93396577380952 22.7989211309524  5.53180803571429 22.3967633928571  C 5.12965029761905 21.9946056547619  4.92857142857143 21.5111607142857  5 20.9464285714286  L 5 6.98214285714286  C 4.92857142857143 6.41741071428571  5.12965029761905 5.93396577380952  5.53180803571429 5.53180803571429  C 5.93396577380952 5.12965029761905  6.41741071428571 4.92857142857143  6.98214285714286 5  L 20.9464285714286 5  C 21.5111607142857 4.92857142857143  21.9946056547619 5.12965029761905  22.3967633928571 5.53180803571429  Z M 17.4681919642857 0.603236607142858  C 17.870349702381 1.00539434523809  18.0714285714286 1.48883928571429  18.0714285714286 2.05357142857143  L 18.0714285714286 4.10714285714286  L 16.4285714285714 4.10714285714286  L 16.4285714285714 2.05357142857143  C 16.4285714285714 1.94233630952381  16.387927827381 1.84607514880952  16.306640625 1.76478794642857  C 16.225353422619 1.68350074404762  16.1290922619048 1.64285714285714  16.0178571428571 2  L 2.05357142857143 2  C 1.94233630952381 1.64285714285714  1.84607514880952 1.68350074404762  1.76478794642857 1.76478794642857  C 1.68350074404762 1.84607514880952  1.64285714285714 1.94233630952381  2 2.05357142857143  L 2 16.0178571428571  C 1.64285714285714 16.1290922619048  1.68350074404762 16.225353422619  1.76478794642857 16.306640625  C 1.84607514880952 16.387927827381  1.94233630952381 16.4285714285714  2.05357142857143 16.4285714285714  L 4.10714285714286 16.4285714285714  L 4.10714285714286 18.0714285714286  L 2.05357142857143 18.0714285714286  C 1.48883928571429 18.0714285714286  1.0053943452381 17.870349702381  0.603236607142857 17.4681919642857  C 0.201078869047619 17.0660342261905  0 16.5825892857143  0 16.0178571428571  L 0 2.05357142857143  C 0 1.48883928571429  0.201078869047619 1.00539434523809  0.603236607142857 0.603236607142858  C 1.0053943452381 0.201078869047619  1.48883928571429 0  2.05357142857143 0  L 16.0178571428571 0  C 16.5825892857143 0  17.0660342261905 0.201078869047619  17.4681919642857 0.603236607142858  Z " fill-rule="nonzero" fill="#000000" stroke="none" transform="matrix(1 0 0 1 1864 0 )" />
  </g>
</svg>