<?xml version="1.0" encoding="utf-8"?>
<svg version="1.1" xmlns:xlink="http://www.w3.org/1999/xlink" width="47px" height="45px" xmlns="http://www.w3.org/2000/svg">
  <g transform="matrix(1 0 0 1 -3 -61 )">
    <path d="M 46 18  L 9.0984375 18  C 9.0984375 19.875  10.85078125 21.4375  13.0046875 22  L 42 22  L 42 40.96875  L 38 40.96875  L 38 26.90625  L 35 26.90625  L 35 40.96875  L 31.03125 40.96875  L 31.03125 35.5  L 27.125 35.5  L 27.125 40.96875  L 23 40.96875  L 23 26.90625  L 20 26.90625  L 20 40.96875  L 15.40625 40.96875  L 15.40625 35.5  L 11.5 35.5  L 11.5 40.96875  L 11.0515625 40.96875  C 7.38984375 40.96875  4.46875 37.97421875  5 34.3125  L 5 17.90625  C 4.46875 15.1078125  6.6890625 12.84375  9.4890625 13  L 32.5359375 13  C 35.9828125 12.84375  38.78671875 10.03984375  38.78671875 6.59375  C 38.78671875 3.14765625  35.98203125 0.34375  32.53671875 1  L 9.15625 1  L 9.15625 5  L 32.53671875 5  C 33.82890625 4.25  34.88046875 5.3015625  34.88046875 6.59375  C 34.88046875 7.8859375  33.82890625 8.9375  32.53671875 9  L 9.4890625 9  C 4.53515625 8.9375  0.5625 12.953125  1 17.90625  L 1 34.3125  C 0.5625 40.1296875  5.2359375 44.875  11.0515625 44  L 46 44  L 46 18  Z " fill-rule="nonzero" fill="#027db4" stroke="none" transform="matrix(1 0 0 1 3 61 )" />
  </g>
</svg>