<?xml version="1.0" encoding="utf-8"?>
<svg version="1.1" xmlns:xlink="http://www.w3.org/1999/xlink" width="23px" height="20px" xmlns="http://www.w3.org/2000/svg">
  <g transform="matrix(1 0 0 1 -1 -1 )">
    <path d="M 17.396412037037 13.1380208333333  C 18.4612268518519 13.1380208333333  19.7611882716049 12.7387152777778  21.2962962962963 11.9401041666667  L 21.2962962962963 3.91927083333333  C 19.7966820987654 4.70920138888889  18.4390432098765 5.10416666666667  17.2233796296296 5.10416666666667  C 16.4957561728395 5.10416666666667  15.8524305555556 4.96527777777778  15.2934027777778 4.6875  C 14.4060570987654 4.26215277777778  13.5896990740741 3.93012152777778  12.8443287037037 3.69140625  C 12.0989583333333 3.45269097222222  11.3092206790123 3.33333333333333  10.4751157407407 3.33333333333333  C 8.94000771604938 3.33333333333333  7.15200617283951 3.88454861111111  5.11111111111111 4.98697916666667  L 5.11111111111111 12.7864583333333  C 7.28510802469136 11.8055555555556  9.20621141975309 11.3151041666667  10.8744212962963 11.3151041666667  C 11.3624614197531 11.3151041666667  11.821662808642 11.34765625  12.252025462963 11.4127604166667  C 12.682388117284 11.4778645833333  13.1171875 11.5907118055556  13.5564236111111 11.7513020833333  C 13.9956597222222 11.9118923611111  14.337287808642 12.0464409722222  14.5813078703704 12.1549479166667  C 14.8253279320988 12.2634548611111  15.1913580246914 12.4348958333333  15.6793981481481 12.6692708333333  L 16.0520833333333 12.8515625  C 16.4425154320988 13.0425347222222  16.890625 13.1380208333333  17.396412037037 13.1380208333333  Z M 2.90827546296296 0.48828125  C 3.24103009259259 0.813802083333333  3.40740740740741 1.20659722222222  3.40740740740741 1.66666666666667  C 3.40740740740741 1.97048611111111  3.32976466049383 2.24826388888889  3.17447916666667 2.5  C 3.01919367283951 2.75173611111111  2.81288580246914 2.95138888888889  3 3.09895833333333  L 3 19.5833333333333  C 2.55555555555556 19.7048611111111  2.515625 19.8046875  2.43576388888889 19.8828125  C 2.35590277777778 19.9609375  2.25385802469136 20  2.12962962962963 20  L 1.27777777777778 20  C 1.15354938271605 20  1.05150462962963 19.9609375  0.971643518518518 19.8828125  C 0.891782407407407 19.8046875  0.851851851851852 19.7048611111111  1 19.5833333333333  L 1 3.09895833333333  C 0.594521604938272 2.95138888888889  0.388213734567902 2.75173611111111  0.232928240740741 2.5  C 0.0776427469135804 2.24826388888889  0 1.97048611111111  0 1.66666666666667  C 0 1.20659722222222  0.166377314814815 0.813802083333333  0.499131944444444 0.48828125  C 0.831886574074074 0.162760416666667  1.23341049382716 0  1.7037037037037 0  C 2.17399691358025 0  2.57552083333333 0.162760416666667  2.90827546296296 0.48828125  Z M 22.5873842592593 1.78385416666667  C 22.8624614197531 1.95746527777778  23 2.19618055555555  23 2.5  L 23 12.4348958333333  C 23 12.7734375  22.8447145061728 13.0208333333333  22.5341435185185 13.1770833333333  C 22.4454089506173 13.2204861111111  22.3699845679012 13.2595486111111  22.3078703703704 13.2942708333333  C 20.3734567901235 14.3012152777778  18.7363040123457 14.8046875  17.396412037037 14.8046875  C 16.6155478395062 14.8046875  15.9145447530864 14.6527777777778  15.2934027777778 14.3489583333333  L 14.9207175925926 14.1666666666667  C 14.3528163580247 13.8802083333333  13.9135802469136 13.671875  13.6030092592593 13.5416666666667  C 13.2924382716049 13.4114583333333  12.8886959876543 13.2855902777778  12.3917824074074 13.1640625  C 11.8948688271605 13.0425347222222  11.3890817901235 12.9817708333333  10.8744212962963 12.9817708333333  C 9.9693287037037 12.9817708333333  8.92447916666667 13.1727430555556  7.73987268518519 13.5546875  C 6.5552662037037 13.9366319444444  5.5414737654321 14.3793402777778  4.69849537037037 14.8828125  C 4.56539351851852 14.9609375  4.41898148148148 15  4.25925925925926 15  C 4.11728395061728 15  3.97530864197531 14.9652777777778  3.83333333333333 14.8958333333333  C 3.54938271604938 14.7309027777778  3.40740740740741 14.4878472222222  3.40740740740741 14.1666666666667  L 3.40740740740741 4.50520833333333  C 3.40740740740741 4.20138888888889  3.54494598765432 3.96267361111111  3.82002314814815 3.7890625  C 4.13059413580247 3.60677083333333  4.47887731481481 3.42230902777778  4.86487268518519 3.23567708333333  C 5.25086805555556 3.04904513888889  5.75665509259259 2.82335069444444  6.3822337962963 2.55859375  C 7.0078125 2.29383680555555  7.68441358024691 2.07899305555555  8.41203703703704 1.9140625  C 9.13966049382716 1.74913194444444  9.82735339506173 1.66666666666667  10.4751157407407 1.66666666666667  C 11.4689429012346 1.66666666666667  12.3962191358025 1.80121527777778  13.2569444444444 2.0703125  C 14.1176697530864 2.33940972222222  15.0449459876543 2.71267361111111  16.0387731481481 3.19010416666667  C 16.3759645061728 3.35503472222222  16.7708333333333 3.4375  17.2233796296296 3.4375  C 18.3059413580247 3.4375  19.6813271604938 2.95138888888889  21.349537037037 1.97916666666667  C 21.5447530864198 1.875  21.6822916666667 1.80121527777778  21.7621527777778 1.7578125  C 22.0372299382716 1.61892361111111  22.3123070987654 1.62760416666667  22.5873842592593 1.78385416666667  Z " fill-rule="nonzero" fill="#000000" stroke="none" transform="matrix(1 0 0 1 1 1 )" />
  </g>
</svg>